<?xml version="1.0" encoding="utf-8"?>
<svg id="master-artboard" viewBox="0 0 406.75189208984375 540.8797607421875" version="1.1" xmlns="http://www.w3.org/2000/svg" x="0px" y="0px" style="enable-background:new 0 0 1400 980;" width="406.75189208984375px" height="540.8797607421875px"><rect id="ee-background" x="0" y="0" width="406.75189208984375" height="540.8797607421875" style="fill: white; fill-opacity: 0; pointer-events: none;"/><defs><linearGradient gradientUnits="objectBoundingBox" id="lgrd2-peachpuff-sienna-h" spreadMethod="pad" x1="0%" x2="100%" y1="0%" y2="0%"><stop offset="0%" style="stop-color:peachpuff;  stop-opacity:1;"/><stop offset="100%" style="stop-color:sienna;  stop-opacity:1"/></linearGradient></defs><g transform="matrix(18.750194549560547, 0, 0, 18.750194549560547, -400.81700134277344, -148.9870376586914)"><path d="M 0 0 H 54.1866 V 40.639999 H 0 V 0 Z" id="svgEditorBackground" style="fill: none; stroke: none; stroke-opacity: 1;"/><g id="Layer_x0020_1" transform="matrix(1, 0, 0, 1, 4.126293432792323, 1.8958643510031834)">
  <metadata id="CorelCorpID_0Corel-Layer"/>
  <path class="fil0" d="M29.898,26.5722l-4.3921,0c-0.0118,-0.635,-0.0177,-1.0172,-0.0177,-1.1583c0,-1.4229,0.2352,-2.5929,0.7056,-3.5102c0.4704,-0.9231,1.417,-1.952,2.8281,-3.1044c1.4111,-1.1465,2.2578,-1.8991,2.5282,-2.2578c0.4292,-0.5585,0.6409,-1.1818,0.6409,-1.8579c0,-0.9408,-0.3763,-1.7463,-1.1289,-2.4224c-0.7526,-0.6703,-1.7639,-1.0054,-3.0397,-1.0054c-1.2289,0,-2.2578,0.3527,-3.0868,1.0524c-0.8232,0.6997,-1.3935,1.7698,-1.7051,3.2044l-4.4391,-0.5527c0.1234,-2.0578,0.9995,-3.8041,2.6223,-5.2387c1.6286,-1.4346,3.757,-2.152,6.4029,-2.152c2.7752,0,4.9859,0.7291,6.6322,2.1814c1.6404,1.4522,2.4635,3.1397,2.4635,5.0741c0,1.0642,-0.3057,2.0755,-0.9054,3.028c-0.6056,0.9525,-1.8933,2.2519,-3.8688,3.8923c-1.0231,0.8525,-1.6581,1.5346,-1.905,2.052c-0.2469,0.5174,-0.3587,1.4405,-0.3351,2.7752Zm-4.3921,6.5087l0,-4.8389l4.8389,0l0,4.8389l-4.8389,0Z" style="fill: rgb(49, 202, 158); fill-rule: nonzero; stroke-opacity: 1;"/>
 </g></g></svg>